<?xml version="1.0" encoding="UTF-8"?>
<svg xmlns="http://www.w3.org/2000/svg" viewBox="0 0 300 300" width="300" height="300">
<!-- AimDB Icon - Square Format for Substack - No Text -->
<g transform="translate(150, 150) scale(0.13, -0.13) translate(-1350, -2450)" fill="#19e5d4" stroke="none">
<path d="M1090 3431 c-215 -48 -402 -156 -547 -317 -122 -136 -196 -272 -239
-442 -63 -248 -35 -520 76 -743 65 -129 178 -272 156 -196 -28 95 -24 278 9
391 15 50 15 62 1 136 -30 157 -14 303 50 452 44 104 93 176 173 257 89 89
177 145 291 183 89 30 104 32 240 32 124 1 156 -3 220 -23 264 -82 460 -287
532 -556 30 -112 29 -298 0 -410 -70 -261 -277 -473 -532 -545 -273 -76 -579
7 -672 183 -18 33 -23 59 -23 118 0 66 4 83 34 142 40 79 91 129 170 166 55
26 58 26 324 29 l267 3 0 -70 c0 -83 18 -111 72 -111 28 0 50 18 170 138 116
116 138 143 138 168 0 25 -22 51 -138 167 -116 115 -143 137 -169 137 -52 0
-73 -34 -73 -118 l0 -72 -263 0 c-145 0 -290 -5 -323 -11 -185 -33 -379 -207
-445 -399 -31 -90 -37 -236 -14 -316 22 -76 44 -119 93 -178 151 -183 451
-287 739 -256 259 28 456 124 642 313 136 139 234 319 273 505 25 114 29 323
9 417 -53 253 -180 464 -372 619 -115 93 -235 153 -394 198 -105 30 -360 34
-475 9z"/>
</g>
</svg>
