<?xml version="1.0" encoding="UTF-8"?>
<svg xmlns="http://www.w3.org/2000/svg" viewBox="0 0 856 466" width="856" height="466">
<!-- AimDB Logo - Transparent Background - Color: Primary Cyan/Teal from aimdb-ui theme -->
<g transform="translate(0,466) scale(0.1,-0.1)" fill="#19e5d4" stroke="none">
<path d="M1090 3431 c-215 -48 -402 -156 -547 -317 -122 -136 -196 -272 -239
-442 -63 -248 -35 -520 76 -743 65 -129 178 -272 156 -196 -28 95 -24 278 9
391 15 50 15 62 1 136 -30 157 -14 303 50 452 44 104 93 176 173 257 89 89
177 145 291 183 89 30 104 32 240 32 124 1 156 -3 220 -23 264 -82 460 -287
532 -556 30 -112 29 -298 0 -410 -70 -261 -277 -473 -532 -545 -273 -76 -579
7 -672 183 -18 33 -23 59 -23 118 0 66 4 83 34 142 40 79 91 129 170 166 55
26 58 26 324 29 l267 3 0 -70 c0 -83 18 -111 72 -111 28 0 50 18 170 138 116
116 138 143 138 168 0 25 -22 51 -138 167 -116 115 -143 137 -169 137 -52 0
-73 -34 -73 -118 l0 -72 -263 0 c-145 0 -290 -5 -323 -11 -185 -33 -379 -207
-445 -399 -31 -90 -37 -236 -14 -316 22 -76 44 -119 93 -178 151 -183 451
-287 739 -256 259 28 456 124 642 313 136 139 234 319 273 505 25 114 29 323
9 417 -53 253 -180 464 -372 619 -115 93 -235 153 -394 198 -105 30 -360 34
-475 9z M4084 3100 c-40 -16 -74 -68 -74 -113 0 -54 17 -86 60 -115 47 -32
127 -27 166 9 55 51 66 101 36 158 -32 59 -122 88 -188 61z M3170 3078 c0 -7
-33 -105 -74 -218 -151 -421 -196 -548 -221 -624 -14 -43 -50 -144 -80 -225
-29 -80 -57 -158 -60 -173 l-7 -28 131 0 c96 0 133 3 136 13 2 6 25 74 51 150
l46 137 233 0 232 0 15 -42 c9 -24 31 -90 50 -148 l35 -105 132 -3 c112 -2
131 0 131 13 0 20 -396 1139 -440 1243 -9 21 -13 22 -160 22 -111 0 -150 -3
-150 -12z m243 -540 c37 -109 67 -200 67 -203 0 -3 -72 -5 -159 -5 l-159 0 58
173 c32 94 68 199 80 231 l23 59 12 -29 c6 -16 42 -118 78 -226z M5920 2450
l0 -642 283 5 c300 4 341 10 454 62 208 95 333 309 333 569 -1 194 -52 334
-167 457 -73 77 -144 124 -244 159 -60 22 -82 24 -361 28 l-298 4 0 -642z
m602 381 c65 -32 151 -126 179 -198 20 -50 23 -76 24 -193 0 -169 -19 -226
-101 -307 -79 -77 -135 -95 -311 -101 l-143 -5 0 418 0 417 153 -4 c133 -4
158 -7 199 -27z M7124 3076 c-3 -8 -4 -295 -2 -637 l3 -624 280 -3 c252 -2
287 0 359 18 43 11 98 31 121 45 62 36 131 117 151 178 26 75 24 188 -5 252
-25 56 -100 138 -142 156 l-29 11 41 30 c46 33 95 105 110 163 18 63 6 172
-24 230 -30 61 -102 129 -160 154 -81 35 -143 41 -423 41 -226 0 -276 -2 -280
-14z m566 -224 c45 -23 74 -73 74 -132 0 -63 -29 -109 -84 -137 -39 -20 -59
-23 -177 -23 l-133 0 0 155 0 155 143 0 c115 0 149 -3 177 -18z m24 -518 c58
-30 79 -64 83 -131 5 -77 -18 -119 -83 -153 -44 -23 -62 -25 -196 -28 l-148
-4 0 172 0 172 153 -3 c130 -4 158 -7 191 -25z M4830 2751 c-48 -10 -92 -34
-134 -74 l-36 -34 0 48 0 49 -120 0 -120 0 0 -465 0 -465 119 0 120 0 3 313
c3 291 4 314 23 346 61 104 199 108 256 8 24 -41 24 -46 27 -354 l3 -313 120
0 119 0 0 283 c0 155 5 300 10 321 17 76 73 126 147 133 39 4 55 0 82 -19 69
-47 71 -56 71 -405 l0 -313 120 0 120 0 0 317 c0 339 -8 423 -45 488 -56 96
-137 139 -265 139 -106 0 -163 -23 -237 -97 -29 -28 -53 -46 -53 -40 0 20 -60
82 -106 109 -47 28 -157 40 -224 25z M4025 2728 c-3 -7 -4 -215 -3 -463 l3
-450 120 0 120 0 0 460 0 460 -118 3 c-88 2 -119 -1 -122 -10z"/>
</g>
</svg>
